# xmcd
#
# Track frame offsets: 
#        150
#        17197
#        30668
#        53801
#        71031
#        85835
#        107323
#        119822
#        131635
#        149203
#        163836
#        178307
#        197409
#        208652
#        224900
#
# Disc length: 3187 seconds
#
# Revision: 0
# Processed by: cddbd v1.5.2PL0 Copyright (c) Steve Scherf et al.
# Submitted via: ExactAudioCopy v0.95b4
#
DISCID=f10c710f
DTITLE=Karen Tyler - Alone and Blue
DYEAR=2000
DGENRE=Blues
TTITLE0=Alone and Blue
TTITLE1=You Shone The Light
TTITLE2=Hand It Over
TTITLE3=Love Letters
TTITLE4=Lazy River
TTITLE5=One Long Storm
TTITLE6=Blues By Candlelight
TTITLE7=Nobody´s Mama
TTITLE8=Pretty Blackbird
TTITLE9=Florence and Delilah
TTITLE10=Set Me Up
TTITLE11=Tangled Roots
TTITLE12=Cappuccino Please
TTITLE13=Big Bright Life
TTITLE14=My Time To Cry
EXTD=
EXTT0=
EXTT1=
EXTT2=
EXTT3=
EXTT4=
EXTT5=
EXTT6=
EXTT7=
EXTT8=
EXTT9=
EXTT10=
EXTT11=
EXTT12=
EXTT13=
EXTT14=
PLAYORDER=
